<?xml version="1.0" standalone="no"?>
<!DOCTYPE svg PUBLIC "-//W3C//DTD SVG 20010904//EN"
 "http://www.w3.org/TR/2001/REC-SVG-20010904/DTD/svg10.dtd">
<svg version="1.0" xmlns="http://www.w3.org/2000/svg"
 width="1280.000000pt" height="1127.000000pt" viewBox="0 0 1280.000000 1127.000000"
 preserveAspectRatio="xMidYMid meet">
<metadata>
Created by potrace 1.15, written by Peter Selinger 2001-2017
</metadata>
<g transform="translate(0.000000,1127.000000) scale(0.100000,-0.100000)"
fill="#191D26" stroke="none">
<path d="M6085 11260 c-161 -12 -351 -36 -515 -66 -148 -27 -450 -100 -462
-112 -4 -4 -9 -498 -10 -1097 l-3 -1090 -22 -55 c-29 -72 -77 -116 -239 -223
-996 -657 -1415 -1997 -989 -3163 89 -244 262 -550 432 -764 99 -124 313 -336
433 -429 338 -263 727 -446 1120 -530 208 -44 326 -55 570 -55 244 0 363 11
570 55 1078 230 1921 1105 2111 2193 46 263 50 620 10 881 -117 766 -520 1411
-1136 1820 -162 108 -197 141 -228 216 l-22 54 -5 1095 -5 1095 -65 18 c-226
62 -507 115 -751 142 -172 19 -626 27 -794 15z m700 -1515 c66 -8 144 -20 174
-25 30 -6 56 -10 57 -10 1 0 4 -204 6 -452 4 -429 5 -457 26 -533 45 -164 102
-278 198 -397 70 -87 139 -144 319 -263 294 -195 513 -446 665 -760 492 -1017
86 -2229 -916 -2734 -295 -148 -575 -214 -914 -214 -339 0 -621 66 -915 215
-864 435 -1300 1406 -1056 2349 40 154 72 241 141 384 155 321 368 562 682
771 238 159 336 263 429 457 21 45 51 127 66 182 l27 100 4 447 4 447 26 5
c88 17 246 37 402 50 93 8 459 -4 575 -19z"/>
<path d="M0 6395 l0 -345 1405 0 1405 0 0 345 0 345 -1405 0 -1405 0 0 -345z"/>
<path d="M9990 6395 l0 -345 1405 0 1405 0 0 345 0 345 -1405 0 -1405 0 0
-345z"/>
<path d="M1915 4204 c-660 -382 -1206 -698 -1214 -703 -11 -6 24 -73 155 -300
98 -170 174 -290 181 -289 7 2 555 316 1218 698 902 521 1203 699 1199 710 -9
26 -329 579 -334 579 -3 -1 -545 -313 -1205 -695z"/>
<path d="M9672 4886 c-21 -27 -334 -577 -331 -580 14 -12 2421 -1396 2428
-1396 9 0 346 579 339 585 -2 2 -549 318 -1215 703 -835 482 -1215 696 -1221
688z"/>
<path d="M4297 3438 c-37 -58 -1387 -2400 -1387 -2406 0 -13 583 -343 590
-335 14 16 1402 2425 1398 2427 -5 5 -571 330 -579 334 -4 2 -14 -7 -22 -20z"/>
<path d="M8193 3292 c-202 -116 -291 -171 -287 -181 6 -18 1383 -2403 1394
-2414 4 -5 139 67 299 159 222 128 290 172 286 183 -8 19 -1384 2403 -1393
2413 -4 4 -138 -68 -299 -160z"/>
<path d="M6060 1405 l0 -1405 340 0 340 0 0 1405 0 1405 -340 0 -340 0 0
-1405z"/>
</g>
</svg>
