<svg id="Layer_1" data-name="Layer 1" xmlns="http://www.w3.org/2000/svg" viewBox="0 0 1042.61 200"><defs><style>.cls-1{fill:#191d26;}.cls-2{fill:#fff;}.cls-3{fill:#38bfc3;}</style></defs><rect class="cls-1" width="1042.61" height="200"/><path class="cls-2" d="M63.23,44.72v93.69a1.52,1.52,0,0,0,1,1.47H75.35c.33,0,1-.65,1-1.47V44.72H95v97.13c0,8-5.4,13.43-13.59,13.43H58.15c-8.18,0-13.43-5.41-13.43-13.43V44.72Z"/><path class="cls-2" d="M152.86,93v62.24H137.31V44.72H152.7l21,66.5V44.72h15.56V155.28H174Z"/><path class="cls-2" d="M309.52,89.77v65.51H293V44.72h16.21L324.75,97l14.74-52.25h16.87V155.28H339V89.77l-11.63,35.7H321Z"/><path class="cls-2" d="M417.17,44.72v93.69a1.52,1.52,0,0,0,1,1.47h11.13c.33,0,1-.65,1-1.47V44.72H449v97.13c0,8-5.41,13.43-13.6,13.43H412.1c-8.19,0-13.43-5.41-13.43-13.43V44.72Z"/><path class="cls-2" d="M514.83,60.61v94.67H496.49V60.61H482.57V44.72h46.18V60.61Z"/><path class="cls-2" d="M562.37,44.72h40.78V60.61H580.87V91.73h18.18v15.4H580.87v32.26h22.28v15.89H562.37Z"/><path class="cls-2" d="M752.07,155.28H733.89v-32.1h-13.1v32.1H702.61V56c0-6.55,4.58-11.31,11.14-11.31h27c6.73,0,11.31,4.76,11.31,11.31Zm-18.18-47.34V63.23a2.29,2.29,0,0,0-2.29-2.46h-8.52a2.29,2.29,0,0,0-2.29,2.46v44.71Z"/><path class="cls-2" d="M793.39,155.28V44.72h40c6.55,0,11.13,4.59,11.13,11.15V86.82c0,8.68-4.91,12.11-11.63,12.93,6.72,1,11.3,5.08,11.3,12.62v31.77c0,6.55-4.58,11.14-11,11.14Zm32.42-91.55a2.41,2.41,0,0,0-2.62-2.62h-11.3V91.57h11.3a2.41,2.41,0,0,0,2.62-2.63Zm0,45.85a2.41,2.41,0,0,0-2.62-2.62h-11.3V138.9h11.3a2.37,2.37,0,0,0,2.62-2.46Z"/><path class="cls-2" d="M884.66,44.72H903V138.9h21.29v16.38H884.66Z"/><path class="cls-2" d="M957.11,44.72h40.78V60.61H977.06V91.73h16.73v15.4H975.61v32.26h22.28v15.89H957.11Z"/><path class="cls-3" d="M241.08,108.82l-13.55,13.54-8.82-8.94,13.55-13.55L218.71,86.45l8.95-8.81,13.42,13.42L254.5,77.64l8.94,8.81L250,99.87l13.42,13.55-8.82,8.94Z"/><path class="cls-3" d="M650.71,108.82l-13.55,13.54-8.82-8.94,13.54-13.55L628.34,86.45l8.95-8.81,13.42,13.42,13.42-13.42,8.94,8.81L659.65,99.87l13.42,13.55-8.82,8.94Z"/></svg>