<svg id="Layer_1" data-name="Layer 1" xmlns="http://www.w3.org/2000/svg" viewBox="0 0 200 200"><defs><style>.cls-1{fill:#38bfc3;}.cls-2{fill:#191d26;}.cls-3{fill:#fff;}</style></defs><rect class="cls-1" x="0.26" width="200" height="200"/><path class="cls-2" d="M78.74,40.68v117a2.08,2.08,0,0,0,1.49,1.91h19a2,2,0,0,0,1.69-1.91v-117h28.8V166.61c0,9.95-7.21,16.94-17.15,16.94H67.09c-9.94,0-16.92-7-16.92-16.94V40.68Z"/><path class="cls-3" d="M129.75,53.39l-16,16.06L103.26,58.84l16-16-16-15.9,10.59-10.45,15.9,15.9,15.9-15.9L156.26,26.9l-15.9,15.9,15.9,16L145.81,69.45Z"/></svg>