<svg id="Layer_1" data-name="Layer 1" xmlns="http://www.w3.org/2000/svg" viewBox="0 0 200 200"><defs><style>.cls-1{fill:#fff;}.cls-2{fill:#191d26;}.cls-3{fill:#38bfc3;}</style></defs><rect class="cls-1" x="0.51" width="199.49" height="199.49"/><path class="cls-2" d="M78.8,40.58V157.32a2.09,2.09,0,0,0,1.48,1.9h19a2,2,0,0,0,1.69-1.9V40.58h28.72V166.19c0,9.91-7.18,16.89-17.1,16.89H67.18c-9.92,0-16.88-7-16.88-16.89V40.58Z"/><path class="cls-3" d="M129.68,53.26l-16,16L103.25,58.69l16-16-16-15.86L113.82,16.4l15.86,15.86L145.54,16.4l10.57,10.43L140.25,42.69l15.86,16L145.69,69.27Z"/></svg>