<svg id="Layer_1" data-name="Layer 1" xmlns="http://www.w3.org/2000/svg" viewBox="0 0 200 200"><defs><style>.cls-1{fill:#38bfc3;}.cls-2{fill:#fff;}</style></defs><path class="cls-1" d="M100.19,134.13,47.67,186.67,13.47,152,66,99.45l-52.54-52,34.68-34.2,52,52,52-52,34.7,34.2-52,52,52,52.52-34.2,34.7Z"/><path class="cls-2" d="M84.72,61.88A5.9,5.9,0,0,0,91,55.68V13H82.17V54.18c0,.16-.12.3-.09.31H77.29a.43.43,0,0,1-.16-.32V13H68.39V55.68a5.87,5.87,0,0,0,6.19,6.2Z"/><polygon class="cls-2" points="116.22 36.44 124.86 61.88 132.08 61.88 132.08 12.99 124.62 12.99 124.62 40.14 116.14 13.22 116.06 12.99 108.76 12.99 108.76 61.88 116.22 61.88 116.22 36.44"/><polygon class="cls-2" points="45.61 97.55 39.16 75.87 39.08 75.63 31.43 75.63 31.43 124.52 39.31 124.52 39.31 97.76 43.73 111.52 47.01 111.52 51.49 97.73 51.49 124.52 59.74 124.52 59.74 75.63 51.79 75.63 45.61 97.55"/><path class="cls-2" d="M91.3,116.82c0,.17-.12.3-.09.31H86.42a.41.41,0,0,1-.16-.32V75.63H77.52v42.69a5.87,5.87,0,0,0,6.19,6.2H93.85a5.9,5.9,0,0,0,6.27-6.2V75.63H91.3Z"/><polygon class="cls-2" points="114.11 83.24 120.18 83.24 120.18 124.52 128.85 124.52 128.85 83.24 134.92 83.24 134.92 75.63 114.11 75.63 114.11 83.24"/><polygon class="cls-2" points="167.37 83.24 167.37 75.63 148.91 75.63 148.91 124.52 167.37 124.52 167.37 116.92 157.65 116.92 157.65 103.52 165.58 103.52 165.58 96.13 157.65 96.13 157.65 83.24 167.37 83.24"/><path class="cls-2" d="M51.72,138.13H39.94a5.06,5.06,0,0,0-5.2,5.26V187h8.6V173h5v14H57V143.39A5,5,0,0,0,51.72,138.13Zm-3.34,8.4v19.16h-5V146.53a.66.66,0,0,1,.67-.73h3.71A.66.66,0,0,1,48.38,146.53Z"/><path class="cls-2" d="M92.09,138.13H74.33V187H92a5,5,0,0,0,5.13-5.19V168a5.4,5.4,0,0,0-3.73-5.47c2.57-.78,3.87-2.68,3.87-5.67v-13.5A5,5,0,0,0,92.09,138.13Zm-3.62,28.62v11.71a.7.7,0,0,1-.8.74h-4.6V165.94h4.6A.72.72,0,0,1,88.47,166.75Zm0-9a.72.72,0,0,1-.8.8h-4.6V145.94h4.6a.72.72,0,0,1,.8.81Z"/><polygon class="cls-2" points="122.81 138.13 114.14 138.13 114.14 187.01 132.09 187.01 132.09 179.2 122.81 179.2 122.81 138.13"/><polygon class="cls-2" points="146.37 187.01 164.82 187.01 164.82 179.41 155.11 179.41 155.11 166.01 163.04 166.01 163.04 158.63 155.11 158.63 155.11 145.73 164.82 145.73 164.82 138.13 146.37 138.13 146.37 187.01"/></svg>